<svg xmlns="http://www.w3.org/2000/svg" preserveAspectRatio="none" viewBox="0 0 1 1" width="2000" height="2000">
<g transform="matrix(0.0005,-0,-0,0.0005,-0,-0)"><defs></defs><defs></defs><g transform="matrix(
1,0,0,1,0,0)" style="mix-blend-mode: normal; opacity: 1"><g transform="matrix(
300,0,0,1250,70,375)" style="mix-blend-mode: normal; opacity: 1"><g transform="matrix(
0.0033333333333333335,-0,-0,0.0008,-0.23333333333333334,-0.3)"><path d="M70,375L70,1625L370,1625L370,375Z"  fill="#000000" /></g></g>
<g transform="matrix(
212.13203435596427,212.1320343559642,-353.5533905932738,353.55339059327383,850.7106781186548,375)" style="mix-blend-mode: normal; opacity: 1"><g transform="matrix(
0.0023570226039551587,-0.0014142135623730948,0.0023570226039551583,0.001414213562373095,-2.889027774234875,0.6727564927611033)"><path d="M850.7106781186548,375L497.157287525381,728.5533905932739L709.2893218813452,940.685424949238L1062.842712474619,587.1320343559642Z"  fill="#000000" /></g></g>
<g transform="matrix(
300,0,0,1250,850,375)" style="mix-blend-mode: normal; opacity: 1"><g transform="matrix(
0.0033333333333333335,-0,-0,0.0008,-2.8333333333333335,-0.3)"><path d="M850,375L850,1625L1150,1625L1150,375Z"  fill="#000000" /></g></g>
<g transform="matrix(
212.13203435596427,212.1320343559642,-353.5533905932738,353.55339059327383,1630.7106781186549,375)" style="mix-blend-mode: normal; opacity: 1"><g transform="matrix(
0.0023570226039551587,-0.0014142135623730948,0.0023570226039551583,0.001414213562373095,-4.727505405319898,1.7758430714121176)"><path d="M1630.7106781186549,375L1277.157287525381,728.5533905932739L1489.2893218813454,940.685424949238L1842.842712474619,587.1320343559642Z"  fill="#000000" /></g></g>
<g transform="matrix(
300,0,0,1250,1630,374.99999999999994)" style="mix-blend-mode: normal; opacity: 1"><g transform="matrix(
0.0033333333333333335,-0,-0,0.0008,-5.433333333333334,-0.3)"><path d="M1630,374.99999999999994L1630,1625L1930,1625L1930,374.99999999999994Z"  fill="#000000" /></g></g>
<g transform="matrix(
212.13203435596435,0,0,212.13203435596424,497.15728752538075,732.0768803661473)" style="mix-blend-mode: normal; opacity: 1"><g transform="matrix(
0.004714045207910315,-0,-0,0.0047140452079103175,-2.3436219288367117,-3.4510435097119716)"><path d="M497.15728752538075,732.0768803661473L497.15728752538075,944.2089147221116L709.2893218813451,944.2089147221116L709.2893218813451,732.0768803661473Z"  fill="#000000" /></g></g>
<g transform="matrix(
212.13203435596435,0,0,212.13203435596435,1277.157287525381,728.5533905932737)" style="mix-blend-mode: normal; opacity: 1"><g transform="matrix(
0.004714045207910315,-0,-0,0.004714045207910315,-6.020577191006758,-3.4344336196330336)"><path d="M1277.157287525381,728.5533905932737L1277.157287525381,940.685424949238L1489.2893218813454,940.685424949238L1489.2893218813454,728.5533905932737Z"  fill="#000000" /></g></g>
</g></g></svg>
