<svg xmlns="http://www.w3.org/2000/svg" preserveAspectRatio="none" viewBox="0 0 1 1" width="1660.3691215963172" height="1250">
<rect x="0" y="0" width="100%" height="100%" fill="#222222" /><g transform="matrix(0.0006022757150762819,-0,-0,0.0008,-0.1021645585895959,-0.3)"><defs></defs><g transform="matrix(
1,0,0,1,0,0)" style="mix-blend-mode: normal; opacity: 1"><g transform="matrix(
2000,0,-0,2000,0,0)" style="mix-blend-mode: normal; opacity: 1"><g transform="matrix(
0.0005,-0,-0,0.0005,-0,-0)"><path d="M0,0L0,2000L2000,2000L2000,0Z"  fill="#FFFFFF" /></g></g>
</g><defs></defs><g transform="matrix(
1,0,0,1,0,0)" style="mix-blend-mode: normal; opacity: 1"><g transform="matrix(
300,0,0,1250,169.63087840368283,375)" style="mix-blend-mode: normal; opacity: 1"><g transform="matrix(
0.0033333333333333335,-0,-0,0.0008,-0.5654362613456094,-0.3)"><path d="M169.63087840368283,375L169.63087840368283,1625L469.6308784036828,1625L469.6308784036828,375Z"  fill="#000000" /></g></g>
<g transform="matrix(
212.13203435596427,212.1320343559642,-353.5533905932738,353.55339059327383,850.7106781186548,375)" style="mix-blend-mode: normal; opacity: 1"><g transform="matrix(
0.0023570226039551587,-0.0014142135623730948,0.0023570226039551583,0.001414213562373095,-2.889027774234875,0.6727564927611033)"><path d="M850.7106781186548,375L497.157287525381,728.5533905932739L709.2893218813452,940.685424949238L1062.842712474619,587.1320343559642Z"  fill="#000000" /></g></g>
<g transform="matrix(
300,0,0,1250,850,375)" style="mix-blend-mode: normal; opacity: 1"><g transform="matrix(
0.0033333333333333335,-0,-0,0.0008,-2.8333333333333335,-0.3)"><path d="M850,375L850,1625L1150,1625L1150,375Z"  fill="#000000" /></g></g>
<g transform="matrix(
212.13203435596427,212.1320343559642,-353.5533905932738,353.55339059327383,1530.7106781186549,375.0000000000001)" style="mix-blend-mode: normal; opacity: 1"><g transform="matrix(
0.0023570226039551587,-0.0014142135623730948,0.0023570226039551583,0.001414213562373095,-4.491803144924384,1.6344217151748075)"><path d="M1530.7106781186549,375.0000000000001L1177.157287525381,728.5533905932739L1389.2893218813454,940.6854249492382L1742.842712474619,587.1320343559644Z"  fill="#000000" /></g></g>
<g transform="matrix(
300,0,0,1250,1530,374.99999999999994)" style="mix-blend-mode: normal; opacity: 1"><g transform="matrix(
0.0033333333333333335,-0,-0,0.0008,-5.1000000000000005,-0.3)"><path d="M1530,374.99999999999994L1530,1625L1830,1625L1830,374.99999999999994Z"  fill="#000000" /></g></g>
<g transform="matrix(
212.13203435596435,0,-0,212.13203435596424,497.15728752538075,728.5533905932738)" style="mix-blend-mode: normal; opacity: 1"><g transform="matrix(
0.004714045207910315,-0,-0,0.0047140452079103175,-2.3436219288367117,-3.434433619633036)"><path d="M497.15728752538075,728.5533905932738L497.15728752538075,940.685424949238L709.2893218813451,940.685424949238L709.2893218813451,728.5533905932738Z"  fill="#000000" /></g></g>
<g transform="matrix(
212.13203435596435,0,-0,212.13203435596435,1177.1572875253812,728.5533905932739)" style="mix-blend-mode: normal; opacity: 1"><g transform="matrix(
0.004714045207910315,-0,-0,0.004714045207910315,-5.549172670215728,-3.4344336196330345)"><path d="M1177.1572875253812,728.5533905932739L1177.1572875253812,940.6854249492383L1389.2893218813456,940.6854249492383L1389.2893218813456,728.5533905932739Z"  fill="#000000" /></g></g>
</g></g></svg>